<?xml version="1.0" encoding="utf-8"?>
<!-- Generator: Adobe Illustrator 22.1.0, SVG Export Plug-In . SVG Version: 6.00 Build 0)  -->
<svg version="1.1" baseProfile="basic" id="Layer_1"
	 xmlns="http://www.w3.org/2000/svg" xmlns:xlink="http://www.w3.org/1999/xlink" x="0px" y="0px" viewBox="0 0 32 32"
	 xml:space="preserve">
<path d="M4,26h3v-6.3l-3,3V26z M9,17.7V26h3v-6.4l-2.5-2.4L9,17.7z M22,14.9c-4.4,0-8,3.6-8,8.1s3.6,8.1,8,8.1s8-3.6,8-8.1
	S26.4,14.9,22,14.9z M26,24h-3v3c0,0.6-0.4,1-1,1s-1-0.4-1-1v-3h-3c-0.6,0-1-0.4-1-1s0.4-1,1-1h3v-3c0-0.6,0.4-1,1-1s1,0.4,1,1v3h3
	c0.6,0,1,0.4,1,1S26.6,24,26,24z M25,12.3V4h-8.3l3.1,3.1l-6.7,6.7l-3.5-3.5l-8.3,7.9l2,2l6.2-6.1l3.9,3.7L22,9.2L25,12.3z" fill="#fff"/>
</svg>
