<?xml version="1.0" encoding="utf-8"?>
<!-- Generator: Adobe Illustrator 22.1.0, SVG Export Plug-In . SVG Version: 6.00 Build 0)  -->
<svg version="1.1" baseProfile="basic" id="Layer_1"
	 xmlns="http://www.w3.org/2000/svg" xmlns:xlink="http://www.w3.org/1999/xlink" x="0px" y="0px" viewBox="0 0 32 32"
	 xml:space="preserve">
<path d="M23.3,13.1C23.2,13,23.1,13,23,13h-8V9h3c0.6,0,1-0.4,1-1V4c0-0.6-0.4-1-1-1h-8C9.4,3,9,3.4,9,4v4c0,0.6,0.4,1,1,1h3v4H4
	c-0.6,0-1,0.4-1,1v5H1c-0.6,0-1,0.4-1,1v4c0,0.6,0.4,1,1,1h5c0.6,0,1-0.4,1-1v-4c0-0.6-0.4-1-1-1H5v-4h8v4h-2c-0.6,0-1,0.4-1,1v4
	c0,0.6,0.4,1,1,1h3.2c-0.1-0.6-0.2-1.3-0.2-2c0-1.5,0.4-3,1-4.3V15h3.1C19.6,13.9,21.4,13.2,23.3,13.1z M24,14.9c-4.4,0-8,3.6-8,8.1
	s3.6,8.1,8,8.1s8-3.6,8-8.1S28.4,14.9,24,14.9z M28,24h-3v3c0,0.6-0.4,1-1,1s-1-0.4-1-1v-3h-3c-0.6,0-1-0.4-1-1s0.4-1,1-1h3v-3
	c0-0.6,0.4-1,1-1s1,0.4,1,1v3h3c0.6,0,1,0.4,1,1S28.6,24,28,24z" fill="#fff"/>
</svg>
