<?xml version="1.0" encoding="utf-8"?>
<!-- Generator: Adobe Illustrator 22.1.0, SVG Export Plug-In . SVG Version: 6.00 Build 0)  -->
<svg version="1.1" baseProfile="basic" id="Layer_1"
	 xmlns="http://www.w3.org/2000/svg" xmlns:xlink="http://www.w3.org/1999/xlink" x="0px" y="0px" viewBox="0 0 32 32"
	 xml:space="preserve">
<path d="M16,2C8.3,2,2,8.3,2,16s6.3,14,14,14s14-6.3,14-14S23.8,2,16,2z M25.6,23.6c-0.3-0.7-0.8-1.5-1.1-2c-0.5-0.7-4.9-2-5.6-2.3
	c-0.8-0.4-1.3-0.6,0.2-2.8c1.8-2.7,0.8-5.2,0.6-6c-0.5-1.5-4-3.6-6.6-0.9c-2.6,2.9-0.2,6.9,0.6,7.8c0.5,0.6,0.4,1,0.4,1
	s-0.1,0.4-0.4,0.7c-0.4,0.3-4.6,1.5-5.8,2.2c-0.7,0.4-1.2,1.3-1.4,2.1c-1.6-2.1-2.6-4.7-2.6-7.5C3.8,9.2,9.3,3.8,16,3.8
	S28.2,9.3,28.2,16C28.2,18.9,27.2,21.5,25.6,23.6z" fill="#fff"/>
</svg>
