<?xml version="1.0" encoding="utf-8"?>
<!-- Generator: Adobe Illustrator 22.1.0, SVG Export Plug-In . SVG Version: 6.00 Build 0)  -->
<svg version="1.1" baseProfile="basic" id="Layer_1"
	 xmlns="http://www.w3.org/2000/svg" xmlns:xlink="http://www.w3.org/1999/xlink" x="0px" y="0px" viewBox="0 0 32 32"
	 xml:space="preserve" style="fill: white">
<path d="M31.6,25.6L17.2,3.3c-0.7-0.9-1.8-0.9-2.5,0L0.3,25.6C-0.4,26.3,0,28,1.3,28s29.3,0,29.3,0C32.1,28.2,32.3,26.3,31.6,25.6z
	 M16.1,25c-1.1,0-1.9-0.9-1.9-2s0.9-2,1.9-2c1.1,0,1.9,0.9,1.9,2C18,24.2,17.1,25,16.1,25z M16.5,20h-1l-1.4-9.1l0,0c0,0,0,0,0-0.1
	c0-1,0.9-1.9,2-1.9s2,0.8,2,1.9c0,0,0,0,0,0.1l0,0V11c0,0.1,0,0.2,0,0.3L16.5,20z" />
</svg>
