<?xml version="1.0" encoding="utf-8"?>
<!-- Generator: Adobe Illustrator 22.1.0, SVG Export Plug-In . SVG Version: 6.00 Build 0)  -->
<svg version="1.1" baseProfile="basic" id="Layer_1"
	 xmlns="http://www.w3.org/2000/svg" xmlns:xlink="http://www.w3.org/1999/xlink" x="0px" y="0px" viewBox="0 0 32 32"
	 xml:space="preserve">
<path d="M29,21h-2v-5c0-0.6-0.4-1-1-1l0,0l0,0h-9v-4h3c0.6,0,1-0.4,1-1V6c0-0.6-0.4-1-1-1h-8c-0.6,0-1,0.4-1,1v4c0,0.6,0.4,1,1,1h3
	v4H6l0,0l0,0c-0.6,0-1,0.4-1,1v5H3c-0.6,0-1,0.4-1,1v4c0,0.6,0.4,1,1,1h5c0.6,0,1-0.4,1-1v-4c0-0.6-0.4-1-1-1H7v-4h8v4h-2
	c-0.6,0-1,0.4-1,1v4c0,0.6,0.4,1,1,1h6c0.6,0,1-0.4,1-1v-4c0-0.6-0.4-1-1-1h-2v-4h8v4h-1c-0.6,0-1,0.4-1,1v4c0,0.6,0.4,1,1,1h5
	c0.6,0,1-0.4,1-1v-4C30,21.4,29.6,21,29,21z" fill="#fff"/>
</svg>
